{"title":"Hotel Transylvania 2 (2015) CAM x264 AC3 TiTAN.mkv","uid":12344621,"size":670431951,"categoryP":"video","categoryS":"movies","magnet":"?xt=urn:btih:69363820c6137f4088c6c63d20666510928d3756&amp;dn=Hotel+Transylvania+2+%282015%29+CAM+x264+AC3+TiTAN.mkv&amp;tr=udp%3A%2F%2Ftracker.openbittorrent.com%3A80&amp;tr=udp%3A%2F%2Fopen.demonii.com%3A1337&amp;tr=udp%3A%2F%2Ftracker.coppersurfer.tk%3A6969&amp;tr=udp%3A%2F%2Fexodus.desync.com%3A6969","seeders":1,"leechers":0,"uploader":"jozz28","files":1,"time":1441333745,"description":"Hotel Transylvania 2 (2015) CAM x264 AC3 TiTAN.mkv\n\n\nStoryline\n\nThe Drac pack is back for an all-new monster comedy adventure in Sony Pictures Animation's Hotel Transylvania 2! Everything seems to be changing for the better at Hotel Transylvania... Dracula's rigid monster-only hotel policy has finally relaxed, opening up its doors to human guests. But behind closed coffins, Drac is worried that his adorable half-human, half-vampire grandson, Dennis, isn't showing signs of being a vampire. So while Mavis is busy visiting her human in-laws with Johnny - and in for a major cultural shock of her own - &quot;Vampa&quot; Drac enlists his friends Frank, Murray, Wayne and Griffin to put Dennis through a &quot;monster-in-training&quot; boot camp. But little do they know that Drac's grumpy and very old, old, old school dad Vlad is about to pay a family visit to the hotel. And when Vlad finds out that his great-grandson is not a pure blood - and humans are now welcome at Hotel Transylvania - things are going to get batty! \n\nDirector: Genndy Tartakovsky\nWriters: Adam Sandler (screenplay), Robert Smigel\nStars: Adam Sandler, Selena Gomez, Nick Offerman |\nAnimation, Comedy, Family \nCountry: USA\nLanguage: English\n\n\nSource: VOBS/Murder THX\n\nPretty nice first vid here.. no camera movement or heads in the way.. lmao\naudio is ok, a little hollow but i had no problem understanding it thru my stereo .. Enjoy\n &lt;a href=&quot;\nhttp://www.imdb.com/title/tt2510894/&quot; rel=&quot;nofollow&quot; target=&quot;_NEW&quot;&gt;\nhttp://www.imdb.com/title/tt2510894/&lt;/a&gt;\n\nGeneral\n\nFormat : Matroska\nFormat version : Version 2\nFile size : 639 MIB\nDuration : 2h 12mn\nOverall bit rate : 1 729 Kbps\nEncoded date : UTC 2015-04-25 02:38:23\n\nVideo\nID : 1\nFormat : AVC\nFormat/Info : Advanced Video Codec\nFormat profile : &lt;a class=&quot;__cf_email__&quot; href=&quot;/cdn-cgi/l/email-protection&quot; data-cfemail=&quot;014c60686f414d352f30&quot;&gt;[email&amp;#160;protected]&lt;/a&gt;&lt;script data-cfhash='f9e31' type=&quot;text/javascript&quot;&gt;\n/* &lt;![CDATA[ */!function(){try{var t=&quot;currentScript&quot;in document?document.currentScript:function(){for(var t=document.getElementsByTagName(&quot;script&quot;),e=t.length;e--;)if(t[e].getAttribute(&quot;data-cfhash&quot;))return t[e]}();if(t&amp;&amp;t.previousSibling){var e,r,n,i,c=t.previousSibling,a=c.getAttribute(&quot;data-cfemail&quot;);if(a){for(e=&quot;&quot;,r=parseInt(a.substr(0,2),16),n=2;a.length-n;n+=2)i=parseInt(a.substr(n,2),16)^r,e+=String.fromCharCode(i);e=document.createTextNode(e),c.parentNode.replaceChild(e,c)}t.parentNode.removeChild(t);}}catch(u){}}()/* ]]&gt; */&lt;/script&gt;\nFormat settings, CABAC : Yes\nFormat settings, ReFrames : 5 frames\nCodec ID : V_MPEG4/ISO/AVC\nDuration : 2h 12mn\nBit rate : 1 600 Kbps\nWidth : 720 pixels\nHeight : 304 pixels\nDisplay aspect ratio : 2.35:1\nFrame rate mode : Constant\nFrame rate : 29.970 fps\nColor space : YUV\nChroma subsampling : 4:2:0\nBit depth : 8 bits\nScan type : Progressive\nBits/(Pixel*Frame) : 0.244\nStream size : 1.45 GiB (91%)\nLanguage : English\nDefault : Yes\nForced : No\nColor primaries : BT.601 NTSC\nTransfer characteristics : BT.709\nMatrix coefficients : BT.601\n\nAudio\nID : 2\nFormat : AC-3\nFormat/Info : Audio Coding 3\nMode extension : CM (complete main)\nFormat settings, Endianness : Big\nCodec ID : A_AC3\nDuration : 2h 12mn\nBit rate mode : Constant\nBit rate : 128 Kbps\nChannel(s) : 2 channels\nChannel positions : Front: L R\nSampling rate : 44.1 KHz\nBit depth : 16 bits\nCompression mode : Lossy\nDelay relative to video : 20ms\nStream size : 121 MiB (7%)\nDefault : Yes\nForced : No","torrent":{"xt":"urn:btih:69363820c6137f4088c6c63d20666510928d3756","amp;dn":"Hotel+Transylvania+2+%282015%29+CAM+x264+AC3+TiTAN.mkv","amp;tr":["udp%3A%2F%2Ftracker.openbittorrent.com%3A80","udp%3A%2F%2Fopen.demonii.com%3A1337","udp%3A%2F%2Ftracker.coppersurfer.tk%3A6969","udp%3A%2F%2Fexodus.desync.com%3A6969"],"infoHash":"69363820c6137f4088c6c63d20666510928d3756","infoHashBuffer":{"type":"Buffer","data":[105,54,56,32,198,19,127,64,136,198,198,61,32,102,101,16,146,141,55,86]},"announce":[],"urlList":[]}}